<?xml version="1.0" encoding="UTF-8"?>
<svg width="42px" height="24px" viewBox="0 0 42 24" version="1.1" xmlns="http://www.w3.org/2000/svg" xmlns:xlink="http://www.w3.org/1999/xlink">
    <!-- Generator: Sketch 50.2 (55047) - http://www.bohemiancoding.com/sketch -->
    <title>logo</title>
    <desc>Created with Sketch.</desc>
    <defs>
        <path d="M16.6189343,12.9629248 L19.7143721,0 L26.4944977,0 L22.9711594,14.7457808 C22.2929239,17.591657 20.178556,18.275795 18.2239161,18.275795 L2.59997211,18.275795 C0.878437633,18.275795 -0.562964897,17.543384 0.217634336,14.2565602 L1.6259967,8.37455526 C2.3376778,5.39116178 4.55461205,4.71067466 6.1577695,4.71067466 L17.0634563,4.71067466 L16.184142,8.38611644 L10.6163675,8.38611644 C9.79806595,8.38611644 9.34948997,8.56277942 9.12145202,9.51850381 L8.22166496,13.2756852 C7.90119563,14.6210417 8.37186595,14.7145453 9.35780069,14.7145453 L14.4593643,14.7145453 C15.393205,14.7145453 16.2151552,14.6553196 16.6189343,12.9629248 Z M35.0144668,4.66503841 L31.8239625,18.2336069 L38.4107119,18.2336069 L41.6,4.66503841 L35.0144668,4.66503841 Z M24.2924265,15.8597108 C23.6861496,18.4003313 21.9372506,19.2570757 20.1786219,19.4043287 C20.0045023,19.4260313 15.0912473,19.4014891 15.0912473,19.4014891 L13.9863275,24 L23.2243981,24 C25.6434247,24 29.2166273,22.7617365 30.4944506,17.4186449 L33.5629292,4.66503841 L26.9771933,4.66503841 L24.2924265,15.8597108 Z" id="path-1"></path>
    </defs>
    <g id="Symbols" stroke="none" stroke-width="1" fill="none" fill-rule="evenodd">
        <g id="base/footer/en" transform="translate(-360.000000, -368.000000)">
            <g id="about" transform="translate(360.000000, 368.000000)">
                <g id="footer-nav">
                    <g id="dji/logo">
                        <mask id="mask-2" fill="white">
                            <use xlink:href="#path-1"></use>
                        </mask>
                        <use id="Mask" fill="#3B3E40" fill-rule="nonzero" xlink:href="#path-1"></use>
                        <g id="grey/7(secondary)" mask="url(#mask-2)" fill="#6C7073" fill-rule="evenodd">
                            <rect id="base" x="0" y="0" width="42" height="24"></rect>
                        </g>
                    </g>
                </g>
            </g>
        </g>
    </g>
</svg>